# xmcd
#
# Track frame offsets:
# 150
# 19155
# 37847
# 57807
# 76405
# 97882
# 116385
# 146035
# 169317
# 185370
#
# Disc length: 2707 seconds
#
#
# Revision: 0
# Processed by: cddbd v1.5.2PL0 Copyright (c) Steve Scherf et al.
# Submitted via: FreeRIP 2.942 
#
DISCID=770a910a
DTITLE=Dana Gillespie - Hot News
DYEAR=1987
DGENRE=Blues
TTITLE0=No Turning Back
TTITLE1=The Lonely Sound Of Crying
TTITLE2=Hot News
TTITLE3=Violet Love
TTITLE4=In The Desert
TTITLE5=Did He Fall Or Was He Pushed?
TTITLE6=If We Could Be Alone
TTITLE7=I'm Through With Love Again
TTITLE8=Ali Baba
TTITLE9=Noise Of The Boys
EXTD=
EXTT0=
EXTT1=
EXTT2=
EXTT3=
EXTT4=
EXTT5=
EXTT6=
EXTT7=
EXTT8=
EXTT9=
PLAYORDER=
